<svg xmlns="http://www.w3.org/2000/svg" viewBox="0 0 960 600" role="img" aria-label="Payment API thumbnail">
  <defs>
    <linearGradient id="bg" x1="0" y1="0" x2="1" y2="1">
      <stop offset="0%" stop-color="#020617" />
      <stop offset="100%" stop-color="#115e59" />
    </linearGradient>
    <radialGradient id="glow" cx="50%" cy="40%" r="55%">
      <stop offset="0%" stop-color="#22d3ee" stop-opacity="0.38" />
      <stop offset="100%" stop-color="#22d3ee" stop-opacity="0" />
    </radialGradient>
  </defs>
  <rect width="960" height="600" fill="url(#bg)"/>
  <circle cx="480" cy="300" r="250" fill="url(#glow)"/>
  <rect x="100" y="110" width="760" height="380" rx="30" fill="#0b1220" stroke="#22d3ee" stroke-opacity="0.28"/>
  <rect x="150" y="170" width="280" height="250" rx="26" fill="#101827" stroke="#7dd3fc" stroke-opacity="0.3"/>
  <rect x="530" y="170" width="280" height="250" rx="26" fill="#111827" stroke="#a78bfa" stroke-opacity="0.3"/>
  <rect x="190" y="220" width="120" height="18" rx="9" fill="#22d3ee"/>
  <rect x="190" y="258" width="180" height="14" rx="7" fill="#334155"/>
  <rect x="190" y="288" width="145" height="14" rx="7" fill="#334155"/>
  <rect x="190" y="330" width="110" height="54" rx="16" fill="#7dd3fc" fill-opacity="0.14" stroke="#7dd3fc" stroke-opacity="0.4"/>
  <path d="M286 248l26 26-26 26" fill="none" stroke="#7dd3fc" stroke-width="10" stroke-linecap="round" stroke-linejoin="round"/>
  <path d="M300 300h360" stroke="#7dd3fc" stroke-width="10" stroke-linecap="round"/>
  <circle cx="480" cy="300" r="46" fill="#22d3ee" fill-opacity="0.18"/>
  <text x="480" y="160" fill="#e2e8f0" font-size="40" text-anchor="middle" font-family="Segoe UI, Arial, sans-serif">Payment API</text>
  <text x="480" y="430" fill="#c4b5fd" font-size="26" text-anchor="middle" font-family="Segoe UI, Arial, sans-serif">Secure • Fast • Reliable</text>
</svg>

